<svg width="27" height="20" viewBox="0 0 27 20" fill="none" xmlns="http://www.w3.org/2000/svg">
<g id="Group">
<path id="Vector" d="M0.719082 1.4329H2.49061C2.88735 1.4329 3.20694 1.11325 3.20694 0.716451C3.20694 0.319647 2.88735 0 2.49061 0H0.719082C0.322347 0 0.00275511 0.319647 0.00275511 0.716451C0.00275511 1.11325 0.325102 1.4329 0.719082 1.4329ZM0.719082 10.7164H2.49061C2.88735 10.7164 3.20694 10.3968 3.20694 10C3.20694 9.6032 2.88735 9.28355 2.49061 9.28355H0.719082C0.322347 9.28355 0.00275511 9.6032 0.00275511 10C0.00275511 10.394 0.325102 10.7164 0.719082 10.7164ZM3.20418 19.278C3.20418 18.8812 2.88459 18.5616 2.48786 18.5616H0.716327C0.319592 18.5616 0 18.8812 0 19.278C0 19.6748 0.319592 19.9945 0.716327 19.9945H2.48786C2.88184 19.9945 3.20418 19.6748 3.20418 19.278ZM5.265 1.43841H26.2837C26.6804 1.43841 27 1.11877 27 0.721962C27 0.325158 26.6804 0.00551108 26.2837 0.00551108H5.265C4.86827 0.00551108 4.54867 0.325158 4.54867 0.721962C4.54867 1.11601 4.87102 1.43841 5.265 1.43841ZM5.265 10.7192H26.2837C26.6804 10.7192 27 10.3996 27 10.0028C27 9.60595 26.6804 9.2863 26.2837 9.2863H5.265C4.86827 9.2863 4.54867 9.60595 4.54867 10.0028C4.54867 10.3996 4.87102 10.7192 5.265 10.7192ZM26.9532 19.2836C26.9532 18.8867 26.6336 18.5671 26.2368 18.5671H5.21816C4.82143 18.5671 4.50184 18.8867 4.50184 19.2836C4.50184 19.6804 4.82143 20 5.21816 20H26.2368C26.6308 20 26.9532 19.6776 26.9532 19.2836Z" fill="#666666"/>
</g>
</svg>
