<svg width="174" height="20" viewBox="0 0 174 20" fill="none" xmlns="http://www.w3.org/2000/svg">
<path d="M0 19.8621V0.137931H4.08184V16.2759H17.4243V19.8621H0Z" fill="#323232"/>
<path d="M21.0011 19.8621L29.2158 0.137931H35.5172L43.7318 19.8621H39.2929L37.5581 15.6966H27.1749L25.4401 19.8621H21.0011ZM28.6546 12.1103H36.0784L32.5323 3.58621H32.2007L28.6546 12.1103Z" fill="#323232"/>
<path d="M48.3273 19.8621V0.137931H63.6087C65.4965 0.137931 66.9592 0.652873 67.9967 1.68276C69.0511 2.71264 69.5784 4.27586 69.5784 6.37241C69.5784 8.15632 69.1957 9.55402 68.4303 10.5655C67.665 11.577 66.5765 12.2115 65.1649 12.469L69.3743 19.8621H64.7312L60.8279 12.6069H52.4091V19.8621H48.3273ZM63.124 3.72414H52.4091V8.9931L63.124 9.02069C63.8723 9.02069 64.442 8.81839 64.8332 8.41379C65.2414 8.0092 65.4455 7.32874 65.4455 6.37241C65.4455 5.3977 65.2414 4.71724 64.8332 4.33103C64.442 3.92644 63.8723 3.72414 63.124 3.72414Z" fill="#323232"/>
<path d="M84.0721 20C80.9597 20 78.5276 19.1632 76.7758 17.4897C75.041 15.7977 74.1736 13.2966 74.1736 9.98621C74.1736 6.69425 75.058 4.21149 76.8268 2.53793C78.6126 0.845977 81.1978 0 84.5823 0H94.2767V3.58621H84.8629C82.6349 3.58621 80.9852 4.09195 79.9137 5.10345C78.8592 6.11494 78.332 7.74253 78.332 9.98621C78.332 12.1195 78.7997 13.7011 79.7351 14.731C80.6705 15.7425 82.0396 16.2943 83.8425 16.3862L87.6692 16.4138V8.71724H95.2716V20H84.0721ZM87.6692 16.4138H91.1898V12.3034H87.6692V16.4138Z" fill="#323232"/>
<path d="M101.388 19.8621V0.137931H121.389V3.72414H105.47V8.08276H119.91V11.669H105.47V16.2759H121.389V19.8621H101.388Z" fill="#323232"/>
<path d="M126.735 19.8621V0.137931H146.736V3.72414H130.817V8.08276H145.257V11.669H130.817V16.2759H146.736V19.8621H126.735Z" fill="#323232"/>
<path d="M152.082 19.8621V0.137931H167.364C169.251 0.137931 170.714 0.652873 171.752 1.68276C172.806 2.71264 173.333 4.27586 173.333 6.37241C173.333 8.15632 172.951 9.55402 172.185 10.5655C171.42 11.577 170.331 12.2115 168.92 12.469L173.129 19.8621H168.486L164.583 12.6069H156.164V19.8621H152.082ZM166.879 3.72414H156.164V8.9931L166.879 9.02069C167.627 9.02069 168.197 8.81839 168.588 8.41379C168.996 8.0092 169.2 7.32874 169.2 6.37241C169.2 5.3977 168.996 4.71724 168.588 4.33103C168.197 3.92644 167.627 3.72414 166.879 3.72414Z" fill="#323232"/>
</svg>
